<?xml version="1.0" standalone="no"?>
<!DOCTYPE svg PUBLIC "-//W3C//DTD SVG 20010904//EN"
 "http://www.w3.org/TR/2001/REC-SVG-20010904/DTD/svg10.dtd">
<svg version="1.0" xmlns="http://www.w3.org/2000/svg"
 width="174.000000pt" height="174.000000pt" viewBox="0 0 174.000000 174.000000"
 preserveAspectRatio="xMidYMid meet">
<metadata>
Created by potrace 1.14, written by Peter Selinger 2001-2017
</metadata>
<g transform="translate(0.000000,174.000000) scale(0.100000,-0.100000)"
fill="#000000" stroke="none">
<path d="M1170 1619 c-14 -11 -32 -26 -40 -32 -17 -14 -24 -17 -44 -17 -14 0
-30 -13 -93 -71 -12 -11 -25 -36 -29 -55 -7 -37 -18 -41 -59 -20 -29 15 -103
14 -158 -3 -82 -25 -153 -39 -160 -32 -5 5 -10 25 -12 46 -6 65 -100 159 -148
148 -12 -4 -34 -14 -49 -25 -14 -10 -39 -18 -55 -18 -114 0 -176 -68 -167
-186 8 -101 85 -189 191 -216 l44 -11 -5 -42 c-4 -24 -1 -76 5 -116 17 -110
17 -142 1 -166 -7 -12 -11 -31 -7 -42 9 -30 17 -63 22 -98 3 -18 9 -33 14 -33
4 0 13 -17 19 -38 5 -22 19 -49 30 -62 11 -13 20 -32 20 -42 0 -11 6 -18 14
-16 12 3 66 -62 66 -79 0 -3 14 -21 31 -41 29 -33 31 -39 24 -86 -3 -28 -7
-57 -7 -65 -2 -21 -111 -131 -131 -131 -9 0 -17 -4 -17 -8 0 -5 -10 -8 -23 -6
-12 1 -22 3 -22 4 0 1 -10 3 -22 4 -13 2 -37 -9 -55 -24 -18 -15 -40 -30 -48
-33 -8 -3 293 -6 669 -6 l683 -1 -5 53 c-6 67 -20 103 -49 118 -25 14 -99 19
-91 7 8 -13 -8 -9 -23 6 -10 11 -11 17 -3 22 9 5 8 10 -2 18 -20 16 -41 52
-68 119 l-23 58 21 59 c29 79 67 157 97 199 43 61 25 146 -41 189 -19 12 -40
22 -47 22 -7 0 -22 7 -32 15 -28 21 -34 19 -38 -15 l-3 -29 -61 29 -62 30 -4
87 c-4 65 -11 100 -28 134 -24 49 -22 86 5 75 8 -3 21 -8 28 -11 21 -9 79 37
109 85 46 74 43 159 -6 199 -9 8 -16 29 -16 48 0 91 -81 151 -140 102z m105
-806 c54 -36 64 -47 76 -82 7 -21 7 -36 -1 -50 -14 -28 -28 -26 -42 4 -6 14
-15 25 -20 25 -5 0 -6 5 -3 10 3 6 1 10 -6 10 -7 0 -9 3 -6 6 4 4 -1 14 -11
23 -18 16 -52 66 -52 76 0 12 28 3 65 -22z m-41 -159 c11 -28 6 -44 -13 -44
-17 0 -19 10 -12 53 2 13 19 7 25 -9z m-119 -234 c3 -5 14 -10 24 -10 13 0 25
-16 40 -49 25 -60 26 -63 4 -59 -10 1 -23 -1 -30 -5 -14 -9 -72 21 -86 45 -6
8 -7 23 -2 34 5 11 9 21 9 24 6 26 30 38 41 20z"/>
</g>
</svg>
